<svg width="17" height="17" viewBox="0 0 17 17" fill="none" xmlns="http://www.w3.org/2000/svg">
<path d="M16.5721 10.9784L13.1123 4.97715C12.3539 3.72595 10.5043 3.71315 9.77211 5.03027L6.13947 11.2715C5.46107 12.4159 6.29947 13.8527 7.65691 13.8527H14.9356C16.3059 13.8527 17.3305 12.3755 16.5721 10.9784Z" fill="white" fill-opacity="0.8"/>
<path d="M11.5821 11.4444L11.369 11.0719C11.1693 10.7256 10.7302 9.98069 10.7302 9.98069L7.80289 4.89717C7.04449 3.76629 5.24801 3.67285 4.48961 5.09685L1.08289 10.9919C0.377606 12.2296 1.21601 13.8392 2.74625 13.8527H9.98528H13.0726H14.9088C13.033 13.8661 12.4339 12.8946 11.5821 11.4444Z" fill="white"/>
<path d="M11.5827 11.4444L11.3696 11.0719C11.1699 10.7257 10.7308 9.98071 10.7308 9.98071L8.84093 6.65399L6.12605 11.285C5.44765 12.4294 6.28605 13.8668 7.64285 13.8668H9.97181H13.0592H14.9088C13.0195 13.8527 12.4339 12.8946 11.5827 11.4444Z" fill="white"/>
</svg>
