<svg width="20" height="20" viewBox="0 0 20 20" fill="none" xmlns="http://www.w3.org/2000/svg">
<g clip-path="url(#clip0_2115_959)">
<rect width="20" height="20" rx="5.5" fill="#AB9FF2"/>
<path fill-rule="evenodd" clip-rule="evenodd" d="M8.57642 12.9707C7.76999 14.1675 6.41865 15.682 4.62053 15.682C3.77051 15.682 2.95315 15.3432 2.95313 13.8711C2.95306 10.122 8.23847 4.31843 13.1425 4.31836C15.9323 4.31831 17.044 6.19277 17.044 8.32145C17.044 11.0537 15.2132 14.178 13.3933 14.178C12.8157 14.178 12.5324 13.8709 12.5324 13.3838C12.5324 13.2567 12.5541 13.119 12.5978 12.9707C11.9765 13.9979 10.7778 14.9513 9.65531 14.9513C8.83797 14.9513 8.42388 14.4535 8.42388 13.7544C8.42388 13.5002 8.47835 13.2356 8.57642 12.9707ZM12.2164 7.20095C11.7725 7.20172 11.4699 7.56695 11.4709 8.088C11.4718 8.60904 11.7758 8.98365 12.2197 8.98293C12.6529 8.98218 12.9554 8.60652 12.9544 8.08545C12.9535 7.56443 12.6496 7.20022 12.2164 7.20095ZM14.5711 7.19847C14.1272 7.19925 13.8246 7.56447 13.8256 8.08552C13.8265 8.60654 14.1304 8.98118 14.5744 8.98043C15.0076 8.9797 15.3101 8.60402 15.3091 8.08297C15.3082 7.56195 15.0043 7.19775 14.5711 7.19847Z" fill="white"/>
</g>
<defs>
<clipPath id="clip0_2115_959">
<rect width="20" height="20" rx="5.5" fill="white"/>
</clipPath>
</defs>
</svg>
